<?xml version="1.0" encoding="UTF-8"?>
<svg width="30px" height="30px" viewBox="0 0 30 30" version="1.1" xmlns="http://www.w3.org/2000/svg" xmlns:xlink="http://www.w3.org/1999/xlink">
    <!-- Generator: Sketch 48.2 (47327) - http://www.bohemiancoding.com/sketch -->
    <title>邮箱（正常）</title>
    <desc>Created with Sketch.</desc>
    <defs></defs>
    <g id="首页" stroke="none" stroke-width="1" fill="none" fill-rule="evenodd" transform="translate(-1380.000000, -4473.000000)">
        <g id="底部" transform="translate(0.000000, 4438.000000)" fill="#919497" fill-rule="nonzero">
            <g id="邮箱（正常）" transform="translate(1380.000000, 35.000000)">
                <path d="M25.1257861,0 C27.8092243,0 29.9895178,2.18029349 30,4.87421384 L30,25.1257862 C30,27.8197065 27.8197065,30 25.1362683,30 L4.86373166,30 C2.18029349,30 0,27.8197065 0,25.1257862 L0,4.87421384 C0,2.18029349 2.16981132,0 4.85324949,0 L25.1257861,0 Z M7,7 C5.90635838,7 5.01849711,7.87398844 5.00924855,8.94682081 L15.0023121,14.4265896 L24.9976879,8.93988439 C24.983815,7.8716763 24.0890173,7 22.9976879,7 L7,7 Z M5.00924855,11.0463573 L5,20.9883761 C5,22.0948877 5.89942197,23 7,23 L22.9976879,23 C24.0982659,23 24.9976879,22.0948877 24.9976879,20.9883761 L24.9976879,11.0416185 L15.2381503,16.4012101 C15.0878613,16.4841393 14.9075145,16.4841393 14.7595376,16.4012101 L5.00924855,11.0463573 Z" id="Combined-Shape"></path>
            </g>
        </g>
    </g>
</svg>