<?xml version="1.0" encoding="UTF-8"?>
<svg width="30px" height="30px" viewBox="0 0 30 30" version="1.1" xmlns="http://www.w3.org/2000/svg" xmlns:xlink="http://www.w3.org/1999/xlink">
    <!-- Generator: Sketch 48.2 (47327) - http://www.bohemiancoding.com/sketch -->
    <title>in (hover)</title>
    <desc>Created with Sketch.</desc>
    <defs></defs>
    <g id="首页下拉" stroke="none" stroke-width="1" fill="none" fill-rule="evenodd" transform="translate(-1560.000000, -4318.000000)">
        <g id="底部" transform="translate(0.000000, 4283.000000)" fill="#FFFFFF" fill-rule="nonzero">
            <g id="in-(hover)" transform="translate(1560.000000, 35.000000)">
                <path d="M27.723,0 C28.32,0 28.848,0.204 29.31,0.609 C29.769,1.017 30,1.518 30,2.115 L30,27.807 C30,28.404 29.769,28.905 29.31,29.31 C28.848,29.715 28.32,29.919 27.723,29.919 L2.196,29.919 C1.599,29.919 1.086,29.715 0.651,29.31 C0.216,28.902 0,28.404 0,27.804 L0,2.115 C0,1.518 0.216,1.017 0.651,0.612 C1.086,0.207 1.599,0 2.196,0 L27.723,0 Z M6.666,9.267 C7.371,9.267 7.98,9.012 8.496,8.493 C9.012,7.977 9.27,7.368 9.27,6.663 C9.27,5.961 9.012,5.349 8.496,4.833 C7.98,4.323 7.371,4.065 6.666,4.065 C5.961,4.065 5.352,4.323 4.836,4.836 C4.32,5.352 4.062,5.961 4.062,6.666 C4.062,7.425 4.305,8.049 4.794,8.535 C5.286,9.024 5.907,9.267 6.666,9.267 Z M8.862,25.527 L8.862,11.22 L4.473,11.22 L4.473,25.53 L8.862,25.53 L8.862,25.527 Z M25.527,25.527 L25.527,17.643 C25.527,15.477 25.161,13.809 24.429,12.642 C23.7,11.478 22.302,10.893 20.244,10.893 C18.183,10.893 16.776,11.652 16.017,13.17 L15.936,13.17 L15.936,11.22 L11.706,11.22 L11.706,25.53 L16.095,25.53 L16.095,18.456 C16.095,16.017 16.989,14.796 18.777,14.796 C19.482,14.796 20.01,15.027 20.361,15.486 C20.712,15.948 20.916,16.38 20.97,16.788 C21.024,17.196 21.051,17.778 21.051,18.537 L21.051,25.53 L25.527,25.53 L25.527,25.527 Z" id="Shape"></path>
            </g>
        </g>
    </g>
</svg>