<?xml version="1.0" encoding="UTF-8"?>
<svg width="160px" height="23px" viewBox="0 0 160 23" version="1.1" xmlns="http://www.w3.org/2000/svg" xmlns:xlink="http://www.w3.org/1999/xlink">
    <!-- Generator: Sketch 48.2 (47327) - http://www.bohemiancoding.com/sketch -->
    <title>LOGO</title>
    <desc>Created with Sketch.</desc>
    <defs></defs>
    <g id="首页下拉" stroke="none" stroke-width="1" fill="none" fill-rule="evenodd" transform="translate(-291.000000, -29.000000)">
        <g id="nav" transform="translate(241.000000, 0.000000)" fill="#FFFFFF" fill-rule="nonzero">
            <path d="M50,29.7970233 L65.0721893,29.7970233 L65.0721893,33.7449522 L59.5242604,33.7449522 L59.5242604,50.7863724 L55.443787,50.7863724 L55.443787,33.7449522 L50,33.7449522 L50,29.7970233 Z M66.6816568,29.2668457 L70.5822485,29.2668457 L70.5822485,36.8408102 C71.2708885,36.2315138 72.050255,35.7332303 72.8923077,35.3638872 C73.6362963,35.0406924 74.4385497,34.8731535 75.2497041,34.8715795 C76.7217055,34.8375142 78.1415773,35.4171238 79.1692308,36.4715795 C80.1486174,37.5848257 80.6398228,39.0447973 80.5325444,40.5236505 L80.5325444,50.7295676 L76.6698225,50.7295676 L76.6698225,43.941402 C76.7176536,42.7207276 76.6319377,41.4984816 76.4142012,40.2964315 C76.2841989,39.7370703 75.9709554,39.2372136 75.5242604,38.8763132 C75.0763739,38.5521892 74.5336606,38.3857127 73.9810651,38.4029404 C73.2233601,38.3901198 72.4902446,38.6718262 71.9360947,39.1887392 C71.3357674,39.7631625 70.9232266,40.505736 70.7526627,41.3189167 C70.5997601,42.3751125 70.5427229,43.4429755 70.5822485,44.5094493 L70.5822485,50.7295676 L66.6816568,50.7295676 L66.6816568,29.2668457 Z M90.4449704,34.8431771 C90.9864732,34.7878787 91.5334694,34.8558487 92.0449704,35.0419937 L91.8272189,38.1851889 C91.1133837,38.1495551 90.3978356,38.1717181 89.687574,38.2514611 C89.0201596,38.3331327 88.4412124,38.7512613 88.1538462,39.3591534 C87.6266087,40.7468993 87.4132165,42.2341785 87.5289941,43.714183 L87.5289941,44.462112 L87.5289941,50.7295676 L83.6473373,50.7295676 L83.6473373,35.2408102 L87.008284,35.2408102 L87.008284,36.5851889 C87.008284,36.5851889 87.6994083,35.1461357 90.4449704,34.8431771 Z M109.313609,40.2490943 L97.9526627,45.7118162 C98.5345206,46.572368 99.4150347,47.1863663 100.423669,47.4348931 C101.501918,47.6763978 102.631069,47.5218116 103.604734,46.9993901 C104.921362,46.3570905 105.938944,45.2309661 106.44497,43.8561949 L109.739645,44.9165499 C109.534883,45.8849934 109.085034,46.7846917 108.433136,47.5295676 C107.544454,48.6559812 106.411379,49.5656785 105.119527,50.1899227 C103.129964,51.1925045 100.815675,51.3328682 98.7195266,50.5780883 C96.6678798,49.8874163 94.9926079,48.3800142 94.0899408,46.4124079 C93.0618369,44.4777649 92.8669562,42.2075764 93.5502959,40.1260173 C94.230271,38.0726324 95.7418955,36.3995389 97.7159763,35.5153664 C99.7017395,34.4688184 102.032043,34.2906187 104.153846,35.0230588 C106.305511,35.8303172 108.039863,37.4724887 108.963314,39.5769049 L109.313609,40.2490943 Z M104.43787,39.1982067 C103.828354,38.5396028 103.014424,38.1059517 102.127811,37.9674375 C101.190591,37.8180438 100.230122,37.9670821 99.3822485,38.393473 C98.4443158,38.8195331 97.6748796,39.5456677 97.1952663,40.4573783 C96.8576479,41.2180998 96.717618,42.0517663 96.7881657,42.8810469 L104.43787,39.1982067 Z M123.628402,49.0916978 C122.962766,49.7453712 122.183039,50.2716069 121.327811,50.6443605 C120.531882,50.9703211 119.678993,51.1344619 118.818935,51.1272008 C116.821049,51.1351114 114.915351,50.2873685 113.583432,48.7982067 C112.107982,47.2401665 111.314137,45.1584513 111.377515,43.0135913 C111.293241,40.8509531 112.0577,38.7410458 113.507692,37.1343014 C114.828133,35.65591 116.723232,34.8205477 118.705325,34.8431771 C119.612658,34.8387874 120.511384,35.0191769 121.346746,35.3733546 C122.202243,35.7481231 122.977061,36.2850305 123.628402,36.9544197 L123.628402,35.2408102 L127.547929,35.2408102 L127.547929,50.7295676 L123.628402,49.0916978 Z M119.510059,38.4786801 C118.363328,38.4489067 117.259364,38.9146416 116.480473,39.7567866 C115.695072,40.6370858 115.281113,41.7873488 115.325444,42.966254 C115.278575,44.1877082 115.721674,45.3772599 116.556213,46.270396 C117.327295,47.1145234 118.423737,47.5868899 119.566864,47.5674375 C120.724827,47.5983235 121.84088,47.1333014 122.63432,46.2893309 C123.463638,45.3827902 123.899459,44.1842812 123.846154,42.9567866 C123.896826,41.7467045 123.460332,40.5668063 122.63432,39.6810469 C121.810114,38.8559794 120.674745,38.4190346 119.510059,38.4786801 Z M131.988166,31.453828 L135.91716,29.5603369 L135.91716,35.2408102 L138.246154,35.2408102 L138.246154,38.5922895 L135.91716,38.5922895 L135.91716,50.7295676 L131.988166,50.7295676 L131.988166,38.5922895 L129.981065,38.5922895 L129.981065,35.2408102 L131.988166,35.2408102 L131.988166,31.453828 Z M166.620118,34.8431771 C168.080664,34.8399205 169.516692,35.2185096 170.785799,35.941402 C173.33896,37.3559598 174.920468,40.0474261 174.913609,42.966254 C174.919097,44.4061366 174.53996,45.8213624 173.815385,47.0656623 C173.104913,48.3142535 172.067264,49.3453561 170.814201,50.0479108 C169.542515,50.7708032 168.101757,51.1432442 166.639053,51.1272008 C164.480612,51.1609159 162.404242,50.300901 160.901775,48.7508694 C159.340521,47.2474743 158.476026,45.1617089 158.515976,42.9946564 C158.52621,38.5153998 162.140997,34.8794978 166.620118,34.8431771 Z M166.686391,38.497615 C165.525949,38.4578629 164.404673,38.9201737 163.609467,39.766254 C162.784169,40.6301462 162.343625,41.7912694 162.388166,42.9851889 C162.341107,44.1964441 162.78093,45.3761239 163.609467,46.2609286 C165.299842,47.9372468 168.025602,47.9372468 169.715976,46.2609286 C170.54966,45.3863628 170.993659,44.2114732 170.946746,43.0041238 C170.991874,41.8079826 170.559274,40.6430297 169.744379,39.766254 C168.95274,38.9242986 167.841852,38.4565559 166.686391,38.4786801 L166.686391,38.497615 Z M184.731361,34.8431771 C186.191738,34.8412332 187.627434,35.219735 188.897041,35.941402 C191.450202,37.3559598 193.031711,40.0474261 193.024852,42.966254 C193.030339,44.4061366 192.651203,45.8213624 191.926627,47.0656623 C191.218869,48.3163265 190.180562,49.3480827 188.925444,50.0479108 C187.653758,50.7708032 186.212999,51.1432442 184.750296,51.1272008 C182.593508,51.1297233 180.524469,50.273411 179.000278,48.7474428 C177.476086,47.2214745 176.622184,45.1514398 176.627219,42.9946564 C176.637452,38.5153998 180.25224,34.8794978 184.731361,34.8431771 Z M184.797633,38.497615 C183.650249,38.4688052 182.544936,38.9302128 181.75858,39.766254 C180.933281,40.6301462 180.492737,41.7912694 180.537278,42.9851889 C180.485119,44.1937648 180.917991,45.3730876 181.739645,46.2609286 C183.430019,47.9372468 186.15578,47.9372468 187.846154,46.2609286 C188.67613,45.3840363 189.119517,44.2107667 189.076923,43.0041238 C189.122051,41.8079826 188.689452,40.6430297 187.874556,39.766254 C187.07847,38.9193417 185.959638,38.4511535 184.797633,38.4786801 L184.797633,38.497615 Z M194.568047,29.2668457 L198.487574,29.2668457 L198.487574,41.6218753 L204.262722,35.2408102 L207.822485,36.8786801 L202.426036,42.6632954 L210,50.7295676 L205.133728,50.7295676 L198.506509,43.5911061 L198.506509,50.7295676 L194.568047,50.7295676 L194.568047,29.2668457 Z M142.146746,50.5875558 L142.146746,29.0112244 L145.763314,29.0112244 C147.303379,28.9595142 148.844246,29.086596 150.35503,29.3899227 C151.619793,29.6655662 152.767732,30.3272026 153.640237,31.2834138 C154.437822,32.1901815 154.869753,33.3611204 154.852071,34.5686209 C154.862455,35.3480219 154.673434,36.1171404 154.302959,36.8029404 C153.852031,37.563403 153.233584,38.2109914 152.494675,38.6964315 C153.709679,39.1705386 154.77087,39.9697068 155.56213,41.0064907 C156.21084,41.9733083 156.541795,43.1184101 156.508876,44.2822304 C156.520503,45.4633194 156.170296,46.6196632 155.505325,47.5958398 C154.881985,48.56639 153.999925,49.343521 152.95858,49.8396268 C151.572678,50.3928649 150.084845,50.6446025 148.594083,50.5780883 L142.146746,50.5875558 Z M145.867456,32.7035321 L145.867456,37.4372599 L147.514793,37.4372599 C148.356259,37.5051618 149.195435,37.2811587 149.891124,36.8029404 C150.407816,36.3877974 150.696074,35.7515204 150.667456,35.0893309 C150.692432,34.402942 150.423864,33.7384077 149.928994,33.262112 C149.273851,32.8147092 148.485634,32.6042953 147.694675,32.6656623 L145.867456,32.7035321 Z M145.867456,41.1390351 L145.867456,46.6680292 L147.618935,46.6680292 C148.879465,46.7951293 150.151045,46.5826544 151.301775,46.0526446 C151.93386,45.6367333 152.295042,44.9143678 152.248521,44.1591534 C152.275207,43.284035 151.858659,42.4544991 151.140828,41.9532363 C150.01287,41.3268487 148.725263,41.0469341 147.439053,41.1485025 L145.867456,41.1390351 Z" id="LOGO"></path>
        </g>
    </g>
</svg>