<?xml version="1.0" encoding="UTF-8"?>
<svg width="30px" height="30px" viewBox="0 0 30 30" version="1.1" xmlns="http://www.w3.org/2000/svg" xmlns:xlink="http://www.w3.org/1999/xlink">
    <!-- Generator: Sketch 48.2 (47327) - http://www.bohemiancoding.com/sketch -->
    <title>twitter (hover)</title>
    <desc>Created with Sketch.</desc>
    <defs></defs>
    <g id="首页下拉" stroke="none" stroke-width="1" fill="none" fill-rule="evenodd" transform="translate(-1620.000000, -4318.000000)">
        <g id="底部" transform="translate(0.000000, 4283.000000)" fill="#FFFFFF" fill-rule="nonzero">
            <g id="twitter-(hover)" transform="translate(1620.000000, 35.000000)">
                <path d="M25.0003125,0 L5.000625,0 C2.25,0 0,2.25 0,5.000625 L0,24.999375 C0,27.751875 2.25,30 5.000625,30 L25.0003125,30 C27.7509375,30 30,27.751875 30,24.999375 L30,5.000625 C30,2.25 27.7509375,0 25.0003125,0 Z M22.455,11.1759375 C22.4625,11.3409375 22.46625,11.506875 22.46625,11.67375 C22.46625,16.756875 18.5971875,22.6190625 11.5209375,22.6190625 C9.34875,22.6190625 7.3265625,21.9825 5.6240625,20.8903125 C5.925,20.9259375 6.2315625,20.9446875 6.541875,20.9446875 C8.34375,20.9446875 10.003125,20.3296875 11.319375,19.2975 C9.635625,19.2665625 8.2153125,18.1546875 7.7259375,16.6265625 C7.96125,16.6715625 8.2021875,16.6959375 8.4496875,16.6959375 C8.8003125,16.6959375 9.140625,16.6490625 9.463125,16.5609375 C7.7034375,16.2075 6.3778125,14.653125 6.3778125,12.789375 C6.3778125,12.7734375 6.3778125,12.7575 6.3778125,12.740625 C6.89625,13.0284375 7.4896875,13.201875 8.1196875,13.2215625 C7.0875,12.5315625 6.40875,11.3540625 6.40875,10.02 C6.40875,9.315 6.598125,8.6540625 6.93,8.0859375 C8.8275,10.4128125 11.6615625,11.9446875 14.8584375,12.105 C14.7928125,11.82375 14.7590625,11.529375 14.7590625,11.2284375 C14.7590625,9.1040625 16.48125,7.381875 18.605625,7.381875 C19.711875,7.381875 20.7121875,7.84875 21.4134375,8.596875 C22.29,8.424375 23.113125,8.1046875 23.8565625,7.663125 C23.5696875,8.56125 22.959375,9.315 22.1653125,9.79125 C22.9434375,9.6984375 23.685,9.49125 24.375,9.185625 C23.859375,9.9571875 23.2078125,10.6340625 22.4559375,11.176875 L22.455,11.1759375 Z" id="Shape"></path>
            </g>
        </g>
    </g>
</svg>