<?xml version="1.0" encoding="UTF-8"?>
<svg width="30px" height="30px" viewBox="0 0 30 30" version="1.1" xmlns="http://www.w3.org/2000/svg" xmlns:xlink="http://www.w3.org/1999/xlink">
    <!-- Generator: Sketch 48.2 (47327) - http://www.bohemiancoding.com/sketch -->
    <title>weibo (正常)</title>
    <desc>Created with Sketch.</desc>
    <defs></defs>
    <g id="Mobile" stroke="none" stroke-width="1" fill="none" fill-rule="evenodd" transform="translate(-143.000000, -5615.000000)">
        <g id="底部" transform="translate(0.000000, 5026.000000)" fill="#919497" fill-rule="nonzero">
            <g id="weibo-(正常)" transform="translate(143.000000, 589.000000)">
                <path d="M12.6228452,13.7261088 C8.50970711,13.9189121 5.17849371,16.1254393 5.17849371,18.8675314 C5.17849371,21.6096234 8.50970711,23.6769038 12.6228452,23.4841004 C16.7359833,23.2912971 20.0779079,20.7205858 20.0779079,17.9677824 C20.0779079,15.2364017 16.7466946,13.5333054 12.6228452,13.7261088 Z M15.429205,20.6456067 C14.165272,22.2737239 11.680251,23.0663598 9.24878661,21.7595816 C8.10267781,21.1276151 8.14552302,19.8958159 8.14552302,19.8958159 C8.14552302,19.8958159 7.66351465,16.0183263 11.8087866,15.536318 C15.9540586,15.0543096 16.6931381,19.0174895 15.429205,20.6456067 Z M12.6549791,18.0427615 C12.3871967,18.2355649 12.3336402,18.599749 12.4835983,18.8353975 C12.6228452,19.071046 12.9441841,19.0924686 13.2012552,18.8996653 C13.4583264,18.6961507 13.554728,18.3426779 13.4154812,18.1070293 C13.2762343,17.8820921 12.9656067,17.8178243 12.6549791,18.0427615 Z M10.6948117,18.5783263 C9.92359833,18.6533054 9.36661089,19.3281171 9.36661089,19.9815063 C9.36661089,20.6241841 9.98786611,21.0740586 10.7590795,20.9776569 C11.5302929,20.8919665 12.1515481,20.2921339 12.1515481,19.6494561 C12.1622594,19.0067783 11.5838494,18.492636 10.6948117,18.5783263 Z M25.4442678,0.0263598326 L4.58937238,0.0263598326 C2.07221758,0.0263598326 0.0263598326,2.07221758 0.0263598326,4.58937238 L0.0263598326,25.4335565 C0.0263598326,27.9507113 2.07221758,29.996569 4.58937238,29.996569 L25.4335565,29.996569 C27.9507113,29.996569 29.996569,27.9507113 29.996569,25.4335565 L29.996569,4.58937238 C30.0072803,2.07221758 27.9614226,0.0263598326 25.4442678,0.0263598326 Z M23.7518828,19.7994142 C22.0594979,23.39841 16.4574895,25.1550628 12.3122176,24.8337238 C8.37046023,24.5230962 3.30401674,23.216318 2.77916316,18.4497908 C2.77916316,18.4497908 2.50066942,16.2861088 4.60008367,13.5011715 C4.60008367,13.5011715 7.60995816,9.29163179 11.1125523,8.09196653 C14.6258577,6.90301255 15.032887,8.91673641 15.032887,10.1164017 C14.850795,11.1339749 14.4973222,11.7230962 15.8148117,11.3160669 C15.8148117,11.3160669 19.2638494,9.72008366 20.6884519,11.1339749 C21.8345607,12.2800837 20.8812552,13.8546443 20.8812552,13.8546443 C20.8812552,13.8546443 20.4099581,14.3794979 21.3846862,14.5723012 C22.3701255,14.7651046 25.4549791,16.1897071 23.7518828,19.7994142 Z M20.3564017,9.83790794 C19.9815063,9.83790794 19.68159,9.53799163 19.68159,9.16309622 C19.68159,8.78820082 19.9815063,8.47757322 20.3564017,8.47757322 C20.3564017,8.47757322 24.587364,7.69564855 24.0839331,12.2372385 C24.0839331,12.2586611 24.0839331,12.2800837 24.0732218,12.3122176 C24.0303766,12.6335565 23.7411716,12.8799163 23.4091213,12.8799163 C23.0342259,12.8799163 22.7235983,12.58 22.7235983,12.2051046 C22.7235983,12.2051046 23.3876987,9.17380754 20.3564017,9.83790794 Z M27.5008368,13.479749 C27.3830125,14.2509624 26.9974058,14.3152301 26.5475314,14.3152301 C26.0012552,14.3152301 25.562092,13.9724686 25.562092,13.4261925 C25.562092,12.9548954 25.7548954,12.472887 25.7548954,12.472887 C25.8084519,12.2693724 26.2690376,11.0375732 25.4549791,9.19523012 C23.9553975,6.667364 20.9241004,6.6352301 20.5599163,6.77447699 C20.1957322,6.91372384 19.6708787,6.98870294 19.6708787,6.98870294 C19.1246025,6.98870294 18.6854393,6.53882846 18.6854393,6.0032636 C18.6854393,5.55338912 18.9853556,5.16778243 19.4030962,5.04995815 C19.4030962,5.04995815 19.4138075,5.03924686 19.4245188,5.02853554 C19.4566527,5.01782426 19.4887866,4.99640165 19.5209205,4.98569037 C19.9386611,4.89999998 21.448954,4.61079496 22.9056903,4.95355647 C25.5299582,5.56410041 29.1182427,8.09196653 27.5008368,13.479749 Z" id="Shape"></path>
            </g>
        </g>
    </g>
</svg>