<?xml version="1.0" encoding="UTF-8"?>
<svg width="31px" height="31px" viewBox="0 0 31 31" version="1.1" xmlns="http://www.w3.org/2000/svg" xmlns:xlink="http://www.w3.org/1999/xlink">
    <!-- Generator: Sketch 48.2 (47327) - http://www.bohemiancoding.com/sketch -->
    <title>weixin (正常)</title>
    <desc>Created with Sketch.</desc>
    <defs></defs>
    <g id="Mobile" stroke="none" stroke-width="1" fill="none" fill-rule="evenodd" transform="translate(-82.000000, -5615.000000)">
        <g id="底部" transform="translate(0.000000, 5026.000000)" fill="#919497" fill-rule="nonzero">
            <g id="weixin-(正常)" transform="translate(82.000000, 589.000000)">
                <path d="M7.81157199,9.78255797 C7.81157199,10.1179877 7.94784032,10.4429353 8.17844831,10.6735433 C8.40905626,10.9041512 8.74448604,11.0404196 9.06943362,11.0404196 C9.4048634,11.0404196 9.72981098,10.9041513 9.96041893,10.6735433 C10.1910269,10.4429353 10.3272953,10.1075055 10.3272953,9.78255797 C10.3272953,9.44712819 10.1910269,9.12218061 9.96041893,8.89157265 C9.72981098,8.6609647 9.3943812,8.52469633 9.06943362,8.52469633 C8.73400384,8.52469633 8.40905626,8.66096466 8.17844831,8.89157265 C7.94784035,9.12218061 7.81157199,9.45761039 7.81157199,9.78255797 Z M17.6438571,16.3234385 C17.6438571,16.585493 17.7486789,16.8370653 17.9373581,17.0257445 C18.1155552,17.2039416 18.3776097,17.3192456 18.6396642,17.3192456 C18.9017187,17.3192456 19.153291,17.2144238 19.3419703,17.0257445 C19.5201674,16.8475475 19.6354713,16.585493 19.6354713,16.3234385 C19.6354713,16.061384 19.5306495,15.8098116 19.3419703,15.6211324 C19.1637732,15.4429353 18.9017187,15.3276314 18.6396642,15.3276314 C18.3776097,15.3276314 18.1260374,15.4324531 17.9373581,15.6211324 C17.7591611,15.7993294 17.6438571,16.061384 17.6438571,16.3234385 Z M14.2581129,9.78255797 C14.2581129,10.1179877 14.3943812,10.4429353 14.6249892,10.6735433 C14.8555971,10.9041512 15.1910269,11.0404196 15.5159745,11.0404196 C15.8514043,11.0404196 16.1763519,10.9041513 16.4069598,10.6735433 C16.6375678,10.4429353 16.7738361,10.1075055 16.7738361,9.78255797 C16.7738361,9.44712819 16.6375678,9.12218061 16.4069598,8.89157265 C16.1763519,8.6609647 15.8409221,8.52469633 15.5159745,8.52469633 C15.1805447,8.52469633 14.8555971,8.66096466 14.6249892,8.89157265 C14.3943812,9.12218061 14.2581129,9.45761039 14.2581129,9.78255797 Z M26.0191191,0.306667 L5.74658249,0.306667 C3.06314432,0.306667 0.893333,2.48696049 0.893333,5.18088084 L0.893333,25.4324532 C0.893333,28.1263735 3.07362649,30.306667 5.75706466,30.306667 L26.0296013,30.306667 C28.7130395,30.306667 30.893333,28.1263735 30.893333,25.4324532 L30.893333,5.18088084 C30.8828508,2.48696049 28.7025573,0.306667 26.0191191,0.306667 Z M12.1407125,20.4010066 C11.008637,20.4010066 10.0966873,20.1703986 8.95412966,19.9397907 L5.77802903,21.5330821 L6.68997872,18.797233 C4.41534561,17.2039416 3.05266215,15.1599165 3.05266215,12.6546754 C3.05266215,8.32553492 7.15119463,4.91882633 12.1511946,4.91882633 C16.6270856,4.91882633 20.5369389,7.64419322 21.3231024,11.3024741 C21.0296013,11.2710276 20.7465825,11.2500632 20.4425992,11.2500632 C16.123941,11.2500632 12.7067502,14.4785748 12.7067502,18.4513211 C12.7067502,19.1116984 12.811572,19.7511114 12.9897691,20.3590779 C12.7172324,20.3905244 12.4342135,20.4010066 12.1407125,20.4010066 Z M25.5579032,23.5875894 L26.239245,25.8622225 L23.7444861,24.4995391 C22.8325364,24.730147 21.9205867,24.960755 21.0191192,24.960755 C16.6899787,24.960755 13.2832701,22.0047802 13.2832701,18.3569814 C13.2832701,14.7196649 16.6899787,11.7532079 21.0191192,11.7532079 C25.1071695,11.7532079 28.7444861,14.7196649 28.7444861,18.3569814 C28.744486,20.4010066 27.3818026,22.224906 25.5579032,23.5875894 Z M22.6019284,16.3234385 C22.6019284,16.585493 22.7067502,16.8370653 22.8954294,17.0257445 C23.0736265,17.2039416 23.335681,17.3192456 23.5977355,17.3192456 C23.85979,17.3192456 24.1113623,17.2144238 24.3000416,17.0257445 C24.4782386,16.8475475 24.5935426,16.585493 24.5935426,16.3234385 C24.5935426,16.061384 24.4887208,15.8098116 24.3000416,15.6211324 C24.1218445,15.4429353 23.85979,15.3276314 23.5977355,15.3276314 C23.335681,15.3276314 23.0841087,15.4324531 22.8954294,15.6211324 C22.7067502,15.7993294 22.6019284,16.061384 22.6019284,16.3234385 Z" id="Shape"></path>
            </g>
        </g>
    </g>
</svg>