<?xml version="1.0" encoding="UTF-8"?>
<svg width="144px" height="91px" viewBox="0 0 144 91" version="1.1" xmlns="http://www.w3.org/2000/svg" xmlns:xlink="http://www.w3.org/1999/xlink">
    <!-- Generator: Sketch 48.2 (47327) - http://www.bohemiancoding.com/sketch -->
    <title>Combined Shape</title>
    <desc>Created with Sketch.</desc>
    <defs></defs>
    <g id="动效" stroke="none" stroke-width="1" fill="none" fill-rule="evenodd" transform="translate(-888.000000, -4005.000000)" opacity="0.800000012">
        <g id="威胁云情报" transform="translate(386.000000, 4005.000000)" fill="#2D84E5" fill-rule="nonzero">
            <path d="M614.053678,86.4055325 C629.824235,84.9601015 642,71.6878376 642,55.7401575 C642,38.7323964 628.212485,24.9448819 611.204724,24.9448819 C609.090129,24.9448819 607.004184,25.157715 604.968216,25.57632 L603.274485,25.9245592 L602.685168,24.2989209 C598.304242,12.2140851 586.791653,4 573.724409,4 C558.829107,4 546.142778,14.6524593 543.449892,29.1239721 L543.063739,31.1991491 L541.012376,30.7017727 C538.838073,30.1745882 536.594938,29.9055118 534.314961,29.9055118 C518.67704,29.9055118 506,42.5825515 506,58.2204724 C506,73.282955 517.794088,85.6890385 532.76877,86.4939859 L533.539825,86.5354331 L612.636382,86.5354331 L614.053678,86.4055325 Z M502,58.2204724 C502,40.3734125 516.467901,25.9055118 534.314961,25.9055118 C536.219063,25.9055118 538.102433,26.0704196 539.949874,26.3954359 C543.744987,11.06457 557.586173,0 573.724409,0 C587.91244,0 600.477895,8.57036806 605.829917,21.3577578 C607.596908,21.0836355 609.392229,20.9448819 611.204724,20.9448819 C630.421624,20.9448819 646,36.5232574 646,55.7401575 C646,73.1427041 633.170313,87.724029 616.23622,90.1742724 L616.23622,90.5354331 L530.661417,90.5354331 C514.476471,88.5114979 502,74.7717541 502,58.2204724 Z" id="Combined-Shape"></path>
        </g>
    </g>
</svg>