<?xml version="1.0" encoding="UTF-8"?>
<svg width="69px" height="69px" viewBox="0 0 69 69" version="1.1" xmlns="http://www.w3.org/2000/svg" xmlns:xlink="http://www.w3.org/1999/xlink">
    <!-- Generator: Sketch 48.2 (47327) - http://www.bohemiancoding.com/sketch -->
    <title>动态</title>
    <desc>Created with Sketch.</desc>
    <defs></defs>
    <g id="首页" stroke="none" stroke-width="1" fill="none" fill-rule="evenodd" transform="translate(-400.000000, -3318.000000)">
        <g id="技术博客" transform="translate(0.000000, 3248.000000)" fill="#FFFFFF" fill-rule="nonzero" stroke="#FFFFFF">
            <g id="动态" transform="translate(400.000000, 70.000000)">
                <path d="M28.5959552,60.2166951 L30.3306916,60.2166951 C30.7950215,60.2166951 31.1702,59.8415165 31.1739146,59.3771866 C31.1813439,56.7249344 31.1999171,48.6604531 31.1702,47.9398131 C31.1367682,47.0743022 31.5119468,46.1307839 31.8871253,45.6924565 C32.2325868,45.2875609 56.2440133,17.3088999 59.9846548,12.9479137 C60.1183818,12.7918988 60.3672626,12.9144819 60.3301162,13.1150724 C59.2677295,18.5458747 52.6816745,52.211648 52.5850939,52.6945511 C52.5033718,53.1031614 52.2396325,53.2740347 51.8681686,53.1551663 C51.4707022,53.0251539 38.5288999,48.9947706 35.6909157,48.1106865 C35.3863153,48.0178206 35.0631417,48.1812647 34.9665611,48.4858651 L34.5022312,49.8899986 C34.4019359,50.1983136 34.5690947,50.5289165 34.8811244,50.6254971 C37.6708183,51.5021519 49.9477002,55.3542326 51.3146873,55.7628429 C53.0085627,56.2680338 54.7693016,55.1759299 55.1296216,53.2517469 C55.4267927,51.6655961 63.4875594,10.6374082 63.6064278,9.89819504 C63.7252963,9.15898188 63.9110282,7.88114606 63.2126761,7.38338443 C62.1094283,6.5995956 61.1027611,6.94505703 60.7461558,7.20136712 C60.7090094,7.2273696 60.6607191,7.23108424 60.6198581,7.25337207 L60.4341261,7.35738196 C60.4341261,7.35738196 8.18772845,35.2543209 6.32297967,36.2609881 C4.45823089,37.2639406 4.54366759,39.3812849 6.10381597,39.8901904 C7.49309096,40.3396617 20.0857172,44.4294793 22.8902696,45.3395658 C23.19487,45.4398611 23.5254729,45.2727023 23.6220535,44.9643873 L24.0678102,43.5974001 C24.1681055,43.2927997 23.9972321,42.9621969 23.6926317,42.8619016 L9.95218198,38.4414812 C9.46184963,38.2854663 9.40241541,37.6168313 9.85560137,37.3753798 L56.7677774,12.2681347 C56.9015044,12.1975566 57.0352314,12.3610007 56.9349362,12.4761545 C53.3985998,16.5994038 31.2482074,42.4012864 30.2563988,43.5416805 C29.1828681,44.7786553 28.577382,46.0676351 28.577382,47.6983616 C28.5810966,49.3290881 28.5959552,60.2166951 28.5959552,60.2166951" id="Shape"></path>
            </g>
        </g>
    </g>
</svg>